<svg width="137" height="137" viewBox="0 0 137 137" fill="none" xmlns="http://www.w3.org/2000/svg">
<g clip-path="url(#clip0)">
<path d="M67.9298 73.4569C67.1033 76.2325 67.2358 78.5029 68.4786 79.2204L77.9006 62.9011C76.657 62.1831 74.6249 63.2026 72.6348 65.3076L74.9958 61.2182L44.9794 43.8882L43.3254 46.753L64.0823 58.737C65.5797 59.6015 66.0933 61.5158 65.2293 63.0123C64.3643 64.5105 62.4509 65.0247 60.9518 64.1592L40.194 52.1747L39.6625 53.0953L61.1885 65.5233C61.5288 65.7198 61.644 66.1523 61.448 66.4918C61.252 66.8313 60.8203 66.947 60.48 66.7505L38.9549 54.323L35.4109 60.4613L65.4273 77.7913L67.9298 73.4569Z" fill="black"/>
<path d="M33.3746 59.4982L42.8531 43.081C35.9284 39.083 28.1959 39.518 25.5779 44.0525C22.9599 48.587 26.4499 55.5002 33.3746 59.4982Z" fill="black"/>
<path d="M77.2693 84.2184L106.425 101.051L107.134 99.8234L77.9783 82.9904L77.2693 84.2184Z" fill="black"/>
<path d="M77.0822 76.7445L98.2592 88.971L98.9677 87.7439L77.7907 75.5174L77.0822 76.7445Z" fill="black"/>
<path d="M84.7266 77.6801L98.6913 85.7426L99.4003 84.5145L85.4356 76.452L84.7266 77.6801Z" fill="black"/>
<path d="M88.0799 74.704L114.169 89.7665L114.877 88.5402L88.7879 73.4777L88.0799 74.704Z" fill="black"/>
</g>
<defs>
<clipPath id="clip0">
<rect width="99.578" height="99.578" fill="white" transform="translate(87.0129 136.802) rotate(-150)"/>
</clipPath>
</defs>
</svg>
