<svg id="Capa_1" enable-background="new 0 0 497 497" height="512" viewBox="0 0 497 497" width="512" xmlns="http://www.w3.org/2000/svg"><g><g><path d="m361.329 488.085c-9.834.001-19.384-2.171-28.383-6.455l-84.446-40.205-84.446 40.204c-8.997 4.283-18.545 6.455-28.379 6.455-18.959 0-37.056-8.23-49.65-22.581-12.471-14.21-18.209-33.164-15.743-52.003l12.141-92.737-64.331-67.889c-16.639-17.559-22.332-42.758-14.857-65.764s26.893-40.046 50.674-44.471l91.949-17.11 44.687-82.162c11.558-21.251 33.765-34.452 57.955-34.452s46.397 13.201 57.955 34.451l44.687 82.162 91.949 17.11c23.781 4.425 43.198 21.466 50.674 44.471 7.475 23.006 1.783 48.205-14.856 65.764l-64.331 67.889 12.141 92.737c2.466 18.837-3.271 37.79-15.741 51.999-12.595 14.353-30.691 22.585-49.649 22.587z" fill="#cc98ff"/></g><g><path d="m493.764 187.11c-7.475-23.006-26.892-40.046-50.674-44.471l-91.949-17.11-44.687-82.162c-11.557-21.251-33.764-34.452-57.954-34.452-5.117 0-10.143.597-15 1.729 18.106 4.221 33.842 15.966 42.955 32.722l120.263 370.134c2.466 18.837-3.271 37.79-15.741 51.999-9.217 10.503-21.385 17.71-34.677 20.831 4.909 1.159 9.929 1.756 15.028 1.755 18.959-.002 37.055-8.234 49.649-22.586 12.47-14.21 18.207-33.162 15.741-51.999l-12.141-92.737 64.331-67.889c16.639-17.559 22.332-42.758 14.856-65.764z" fill="#ba87ee"/></g><g><path d="m272.845 61.646 47.086 86.573c3.988 7.333 11.069 12.477 19.275 14.004l96.886 18.029c21.594 4.018 30.154 30.363 15.046 46.307l-67.785 71.534c-5.741 6.059-8.446 14.383-7.362 22.659l12.793 97.715c2.851 21.779-19.559 38.061-39.391 28.619l-88.979-42.363c-7.536-3.588-16.289-3.588-23.825 0l-88.979 42.363c-19.832 9.442-42.242-6.84-39.391-28.619l12.793-97.715c1.084-8.276-1.621-16.6-7.362-22.659l-67.785-71.534c-15.108-15.944-6.548-42.288 15.046-46.307l96.886-18.029c8.206-1.527 15.287-6.672 19.275-14.004l47.086-86.573c10.492-19.296 38.192-19.296 48.687 0z" fill="#fddf7c"/></g><g><path d="m451.137 226.558c15.108-15.944 6.548-42.288-15.046-46.307l-96.886-18.029c-8.206-1.527-15.287-6.672-19.275-14.004l-47.086-86.573c-10.495-19.296-38.195-19.296-48.69 0l-5.874 10.8c10.425-2.469 22.201 1.679 28.068 12.467l42.844 78.774c3.629 6.672 10.072 11.353 17.539 12.743l88.159 16.405c19.649 3.656 27.438 27.628 13.691 42.135l-61.679 65.09c-5.224 5.513-7.685 13.087-6.699 20.618l11.641 88.913c1.92 14.667-8.753 26.583-21.745 28.308l19.294 9.186c19.832 9.442 42.242-6.84 39.391-28.619l-12.793-97.715c-1.084-8.276 1.621-16.6 7.362-22.659z" fill="#fcce63"/></g></g></svg>