<svg height="512pt" viewBox="0 0 512 512" width="512pt" xmlns="http://www.w3.org/2000/svg"><path d="m350.222656 381.167969h118.042969c5.523437 0 10-4.476563 10-10v-136.800781h-138.042969v136.800781c0 5.523437 4.476563 10 10 10zm0 0" fill="#bcaaa4"/><path d="m447.359375 234.367188v146.800781h20.90625c5.523437 0 10-4.476563 10-10v-136.800781zm0 0" fill="#a1887f"/><path d="m161.777344 512h-118.042969c-5.523437 0-10-4.476562-10-10v-132.679688h138.042969v132.679688c0 5.523438-4.476563 10-10 10zm0 0" fill="#bcaaa4"/><path d="m140.875 369.320312v142.679688h20.902344c5.523437 0 10-4.476562 10-10v-132.679688zm0 0" fill="#a1887f"/><path d="m512 103.019531v177.191407c0 15.929687-12.910156 28.839843-28.851562 28.839843h-148.339844c-15.929688 0-28.847656-12.910156-28.847656-28.839843v-177.191407c0-56.882812 46.117187-103.019531 103.019531-103.019531 56.898437 0 103.019531 46.121094 103.019531 103.019531zm0 0" fill="#ec407a"/><path d="m408.980469 0c-5.25 0-10.410157.394531-15.453125 1.152344 49.566406 7.457031 87.566406 50.222656 87.566406 101.867187v177.191407c0 15.929687-12.914062 28.84375-28.84375 28.84375h30.902344c15.933594 0 28.847656-12.914063 28.847656-28.84375v-177.191407c0-56.898437-46.121094-103.019531-103.019531-103.019531zm0 0" fill="#e91e63"/><path d="m305.964844 276.554688v-120.097657c0-17.070312-13.835938-30.90625-30.90625-30.90625-17.070313 0-30.90625 13.835938-30.90625 30.90625v58.289063c0 34.136718 27.675781 61.808594 61.8125 61.808594zm0 0" fill="#e1f5fe"/><path d="m275.058594 125.550781c-5.632813 0-10.90625 1.511719-15.453125 4.144531 9.234375 5.34375 15.453125 15.324219 15.453125 26.761719v111.808594c9.09375 5.261719 19.640625 8.289063 30.90625 8.289063v-120.101563c0-17.066406-13.835938-30.902344-30.90625-30.902344zm0 0" fill="#b3e5fc"/><path d="m509.65625 81.066406c-22.269531 17.179688-59.058594 28.410156-100.667969 28.410156s-78.398437-11.230468-100.667969-28.410156c10.050782-46.347656 51.3125-81.066406 100.667969-81.066406 28.453125 0 54.207031 11.527344 72.84375 30.175781 13.699219 13.699219 23.570313 31.253907 27.824219 50.890625zm0 0" fill="#e1f5fe"/><path d="m481.832031 30.175781c-18.636719-18.648437-44.390625-30.175781-72.84375-30.175781-5.230469 0-10.359375.410156-15.378906 1.164062 22.238281 3.359376 42.136719 13.824219 57.316406 29.011719 8.003907 8 14.699219 17.316407 19.730469 27.59375 6.523438 13.320313.683594 29.496094-12.769531 35.734375-17.792969 8.246094-39.960938 13.789063-64.351563 15.449219 5.0625.347656 10.21875.523437 15.453125.523437 41.609375 0 78.398438-11.230468 100.667969-28.410156-4.253906-19.636718-14.125-37.191406-27.824219-50.890625zm0 0" fill="#b3e5fc"/><path d="m206.039062 233.851562v177.1875c0 15.929688-12.917968 28.851563-28.847656 28.851563h-148.339844c-15.941406 0-28.851562-12.921875-28.851562-28.851563v-177.1875c0-56.890624 46.121094-103.023437 103.019531-103.023437 56.871094 0 103.019531 46.121094 103.019531 103.023437zm0 0" fill="#ec407a"/><path d="m103.019531 130.832031c-5.253906 0-10.414062.398438-15.453125 1.15625 49.5625 7.453125 87.5625 50.21875 87.5625 101.863281v177.191407c0 15.929687-12.914062 28.84375-28.84375 28.84375h30.90625c15.929688 0 28.84375-12.914063 28.84375-28.84375v-177.191407c0-56.894531-46.121094-103.019531-103.015625-103.019531zm0 0" fill="#e91e63"/><path d="m206.035156 407.386719v-120.097657c0-17.070312 13.835938-30.90625 30.90625-30.90625 17.070313 0 30.90625 13.839844 30.90625 30.90625v58.289063c0 34.136719-27.675781 61.808594-61.8125 61.808594zm0 0" fill="#e1f5fe"/><path d="m236.941406 256.382812c-5.628906 0-10.90625 1.515626-15.453125 4.144532 9.234375 5.34375 15.453125 15.324218 15.453125 26.761718v58.289063c0 22.875-12.433594 42.832031-30.90625 53.519531v8.292969c34.140625 0 61.8125-27.675781 61.8125-61.8125v-58.289063c0-17.070312-13.835937-30.90625-30.90625-30.90625zm0 0" fill="#b3e5fc"/><g fill="#9d614f"><path d="m70.820312 458.140625c-4.140624 0-7.5 3.359375-7.5 7.5v20.605469c0 4.140625 3.359376 7.5 7.5 7.5 4.144532 0 7.5-3.359375 7.5-7.5v-20.605469c0-4.140625-3.355468-7.5-7.5-7.5zm0 0"/><path d="m102.757812 458.140625c-4.144531 0-7.5 3.359375-7.5 7.5v20.605469c0 4.140625 3.355469 7.5 7.5 7.5 4.140626 0 7.5-3.359375 7.5-7.5v-20.605469c0-4.140625-3.359374-7.5-7.5-7.5zm0 0"/><path d="m134.691406 458.140625c-4.140625 0-7.5 3.359375-7.5 7.5v20.605469c0 4.140625 3.359375 7.5 7.5 7.5 4.144532 0 7.5-3.359375 7.5-7.5v-20.605469c0-4.140625-3.355468-7.5-7.5-7.5zm0 0"/><path d="m379.105469 327.308594c-4.140625 0-7.5 3.359375-7.5 7.5v20.605468c0 4.140626 3.359375 7.5 7.5 7.5 4.144531 0 7.5-3.359374 7.5-7.5v-20.605468c0-4.140625-3.355469-7.5-7.5-7.5zm0 0"/><path d="m411.042969 327.308594c-4.144531 0-7.5 3.359375-7.5 7.5v20.605468c0 4.140626 3.355469 7.5 7.5 7.5 4.140625 0 7.5-3.359374 7.5-7.5v-20.605468c0-4.140625-3.359375-7.5-7.5-7.5zm0 0"/><path d="m442.976562 327.308594c-4.140624 0-7.5 3.359375-7.5 7.5v20.605468c0 4.140626 3.359376 7.5 7.5 7.5 4.144532 0 7.5-3.359374 7.5-7.5v-20.605468c0-4.140625-3.355468-7.5-7.5-7.5zm0 0"/></g><path d="m203.6875 211.898438c-22.273438 17.183593-59.058594 28.410156-100.667969 28.410156s-78.398437-11.226563-100.671875-28.410156c10.054688-46.347657 51.3125-81.066407 100.671875-81.066407 28.453125 0 54.207031 11.527344 72.84375 30.175781 13.699219 13.699219 23.570313 31.253907 27.824219 50.890626zm0 0" fill="#e1f5fe"/><path d="m175.863281 161.007812c-18.636719-18.648437-44.390625-30.175781-72.84375-30.175781-5.230469 0-10.359375.414063-15.378906 1.164063 22.234375 3.359375 42.136719 13.824218 57.316406 29.011718 8.242188 8.242188 15.097657 17.878907 20.179688 28.523438 6.140625 12.871094.609375 28.269531-12.28125 34.367188-17.949219 8.488281-40.472657 14.199218-65.289063 15.886718 5.0625.347656 10.21875.523438 15.453125.523438 41.609375 0 78.394531-11.226563 100.667969-28.410156-4.253906-19.636719-14.125-37.191407-27.824219-50.890626zm0 0" fill="#b3e5fc"/><path d="m87.566406 369.320312h-87.566406v-51.507812h87.566406c14.222656 0 25.753906 11.53125 25.753906 25.753906s-11.53125 25.753906-25.753906 25.753906zm0 0" fill="#fdd835"/><path d="m424.433594 182.855469h87.566406v51.511719h-87.566406c-14.222656 0-25.753906-11.53125-25.753906-25.757813 0-14.222656 11.53125-25.753906 25.753906-25.753906zm0 0" fill="#fdd835"/><path d="m481.09375 182.855469h30.90625v51.511719h-30.90625zm0 0" fill="#fbc02d"/><path d="m87.570312 310.308594h-87.570312v15h87.570312c10.058594 0 18.25 8.191406 18.25 18.261718 0 10.058594-8.191406 18.25-18.25 18.25h-87.570312v15h87.570312c18.328126 0 33.25-14.921874 33.25-33.25 0-18.339843-14.921874-33.261718-33.25-33.261718zm0 0" fill="#e1f5fe"/><path d="m424.429688 190.359375h87.570312v-15h-87.570312c-18.328126 0-33.25 14.910156-33.25 33.25s14.921874 33.261719 33.25 33.261719h87.570312v-15h-87.570312c-10.058594 0-18.25-8.191406-18.25-18.261719 0-10.058594 8.191406-18.25 18.25-18.25zm0 0" fill="#e1f5fe"/></svg>